<mxfile host="app.diagrams.net" agent="Mozilla/5.0 (X11; Ubuntu; Linux x86_64; rv:136.0) Gecko/20100101 Firefox/136.0" version="26.2.4">
  <diagram name="Page-1" id="jTGWeLDhfQTVJN51g_LI">
    <mxGraphModel dx="4527" dy="3670" grid="0" gridSize="10" guides="1" tooltips="1" connect="1" arrows="1" fold="1" page="1" pageScale="1" pageWidth="850" pageHeight="1100" math="0" shadow="0">
      <root>
        <mxCell id="0" />
        <mxCell id="1" parent="0" />
        <mxCell id="C-xJPiLDa-gwmNhUrSdP-5" value="&lt;h1&gt;&lt;font style=&quot;font-size: 40px;&quot; face=&quot;Verdana&quot;&gt;GATEWAY SERVER&lt;/font&gt;&lt;/h1&gt;" style="rounded=0;whiteSpace=wrap;html=1;direction=east;horizontal=0;fontSize=15;labelBackgroundColor=#FFFFFF;" vertex="1" parent="1">
          <mxGeometry x="190" y="135" width="160" height="1019" as="geometry" />
        </mxCell>
        <mxCell id="C-xJPiLDa-gwmNhUrSdP-11" value="&lt;h1&gt;USER SERVICE&lt;/h1&gt;" style="whiteSpace=wrap;html=1;aspect=fixed;" vertex="1" parent="1">
          <mxGeometry x="830" y="386" width="254" height="254" as="geometry" />
        </mxCell>
        <mxCell id="C-xJPiLDa-gwmNhUrSdP-14" value="&lt;h1&gt;SEARCH SERVICE&lt;/h1&gt;" style="whiteSpace=wrap;html=1;aspect=fixed;" vertex="1" parent="1">
          <mxGeometry x="833" y="1077" width="254" height="254" as="geometry" />
        </mxCell>
        <mxCell id="C-xJPiLDa-gwmNhUrSdP-15" value="&lt;h1&gt;LISTING SERVICE&lt;/h1&gt;" style="whiteSpace=wrap;html=1;aspect=fixed;" vertex="1" parent="1">
          <mxGeometry x="833" y="28" width="254" height="254" as="geometry" />
        </mxCell>
        <mxCell id="C-xJPiLDa-gwmNhUrSdP-18" value="&lt;h1&gt;REVIEW SERVICE&lt;/h1&gt;" style="whiteSpace=wrap;html=1;aspect=fixed;" vertex="1" parent="1">
          <mxGeometry x="830" y="756" width="254" height="254" as="geometry" />
        </mxCell>
        <mxCell id="C-xJPiLDa-gwmNhUrSdP-19" value="&lt;h1&gt;NOTIFICATION SERVICE&lt;/h1&gt;" style="whiteSpace=wrap;html=1;aspect=fixed;" vertex="1" parent="1">
          <mxGeometry x="1868" y="123" width="254" height="254" as="geometry" />
        </mxCell>
        <mxCell id="C-xJPiLDa-gwmNhUrSdP-20" value="&lt;h1&gt;BOOKING SERVICE&lt;/h1&gt;" style="whiteSpace=wrap;html=1;aspect=fixed;direction=south;" vertex="1" parent="1">
          <mxGeometry x="1877" y="497" width="256" height="256" as="geometry" />
        </mxCell>
        <mxCell id="C-xJPiLDa-gwmNhUrSdP-21" value="&lt;h1&gt;PAYMENT SERVICE&lt;/h1&gt;" style="whiteSpace=wrap;html=1;aspect=fixed;" vertex="1" parent="1">
          <mxGeometry x="1879" y="902" width="254" height="254" as="geometry" />
        </mxCell>
        <mxCell id="C-xJPiLDa-gwmNhUrSdP-33" value="&lt;h1&gt;&lt;font style=&quot;font-size: 50px;&quot;&gt;DB&lt;/font&gt;&lt;/h1&gt;" style="shape=cylinder3;whiteSpace=wrap;html=1;boundedLbl=1;backgroundOutline=1;size=15;" vertex="1" parent="1">
          <mxGeometry x="2620" y="286" width="172" height="192" as="geometry" />
        </mxCell>
        <mxCell id="C-xJPiLDa-gwmNhUrSdP-35" value="" style="shape=partialRectangle;whiteSpace=wrap;html=1;bottom=1;right=1;left=1;top=0;fillColor=none;routingCenterX=-0.5;strokeWidth=4;" vertex="1" parent="1">
          <mxGeometry x="266" y="1150" width="3080" height="548" as="geometry" />
        </mxCell>
        <mxCell id="C-xJPiLDa-gwmNhUrSdP-36" value="" style="shape=partialRectangle;whiteSpace=wrap;html=1;bottom=1;right=1;left=1;top=0;fillColor=none;routingCenterX=-0.5;direction=west;strokeWidth=4;" vertex="1" parent="1">
          <mxGeometry x="270" y="-274" width="3076" height="409" as="geometry" />
        </mxCell>
        <mxCell id="C-xJPiLDa-gwmNhUrSdP-41" value="" style="shape=partialRectangle;whiteSpace=wrap;html=1;bottom=1;right=1;left=1;top=0;fillColor=none;routingCenterX=-0.5;direction=north;strokeWidth=4;" vertex="1" parent="1">
          <mxGeometry x="3337" y="-268" width="9" height="1966" as="geometry" />
        </mxCell>
        <mxCell id="C-xJPiLDa-gwmNhUrSdP-44" value="&lt;h1&gt;&lt;font style=&quot;font-size: 40px;&quot;&gt;DISCOVERY&lt;br&gt;SERVICE&lt;/font&gt;&lt;/h1&gt;" style="whiteSpace=wrap;html=1;aspect=fixed;" vertex="1" parent="1">
          <mxGeometry x="725" y="1984" width="267" height="267" as="geometry" />
        </mxCell>
        <mxCell id="C-xJPiLDa-gwmNhUrSdP-45" value="&lt;h1&gt;&lt;font style=&quot;font-size: 28px;&quot;&gt;REGISTRY&lt;/font&gt;&lt;/h1&gt;" style="html=1;verticalAlign=bottom;endArrow=open;dashed=1;endSize=8;curved=0;rounded=0;entryX=0.5;entryY=0;entryDx=0;entryDy=0;strokeWidth=4;horizontal=0;" edge="1" parent="1" target="C-xJPiLDa-gwmNhUrSdP-44">
          <mxGeometry x="0.0849" y="-25" relative="1" as="geometry">
            <mxPoint x="865.333333333333" y="1701" as="sourcePoint" />
            <mxPoint x="362.33333333333303" y="2017" as="targetPoint" />
            <Array as="points" />
            <mxPoint as="offset" />
          </mxGeometry>
        </mxCell>
        <mxCell id="C-xJPiLDa-gwmNhUrSdP-46" value="&lt;h1&gt;&lt;font style=&quot;font-size: 40px;&quot;&gt;CONFIG SERVVICE&lt;/font&gt;&lt;/h1&gt;" style="whiteSpace=wrap;html=1;aspect=fixed;" vertex="1" parent="1">
          <mxGeometry x="2122" y="1987" width="267" height="267" as="geometry" />
        </mxCell>
        <mxCell id="C-xJPiLDa-gwmNhUrSdP-52" value="&lt;h1&gt;&lt;font style=&quot;font-size: 31px;&quot;&gt;PULL CONFIGURATION&lt;/font&gt;&lt;/h1&gt;" style="html=1;verticalAlign=bottom;endArrow=open;dashed=1;endSize=8;curved=0;rounded=0;exitX=0;exitY=0.5;exitDx=0;exitDy=0;entryX=1;entryY=0.5;entryDx=0;entryDy=0;strokeWidth=4;horizontal=1;" edge="1" parent="1" source="C-xJPiLDa-gwmNhUrSdP-46" target="C-xJPiLDa-gwmNhUrSdP-44">
          <mxGeometry x="0.0511" y="-24" relative="1" as="geometry">
            <mxPoint x="1319" y="2043" as="sourcePoint" />
            <mxPoint x="1322" y="2316" as="targetPoint" />
            <mxPoint as="offset" />
          </mxGeometry>
        </mxCell>
        <mxCell id="C-xJPiLDa-gwmNhUrSdP-48" value="&lt;h1&gt;PULL CONFIGURATION&lt;/h1&gt;" style="html=1;verticalAlign=bottom;endArrow=open;dashed=1;endSize=8;curved=0;rounded=0;exitX=0.647;exitY=1.004;exitDx=0;exitDy=0;exitPerimeter=0;entryX=0.5;entryY=0;entryDx=0;entryDy=0;strokeWidth=4;horizontal=0;" edge="1" parent="1" source="C-xJPiLDa-gwmNhUrSdP-35" target="C-xJPiLDa-gwmNhUrSdP-46">
          <mxGeometry x="0.0511" y="-24" relative="1" as="geometry">
            <mxPoint x="1728" y="1868" as="sourcePoint" />
            <mxPoint x="1648" y="1868" as="targetPoint" />
            <mxPoint as="offset" />
          </mxGeometry>
        </mxCell>
        <mxCell id="C-xJPiLDa-gwmNhUrSdP-53" value="&lt;font style=&quot;font-size: 36px;&quot;&gt;KAFKA&lt;/font&gt;" style="strokeWidth=2;html=1;shape=mxgraph.flowchart.direct_data;whiteSpace=wrap;" vertex="1" parent="1">
          <mxGeometry x="1356" y="500" width="277" height="123" as="geometry" />
        </mxCell>
        <mxCell id="C-xJPiLDa-gwmNhUrSdP-58" value="" style="endArrow=classic;startArrow=classic;html=1;rounded=0;entryX=0;entryY=0.5;entryDx=0;entryDy=0;entryPerimeter=0;exitX=1;exitY=0.5;exitDx=0;exitDy=0;" edge="1" parent="1" source="C-xJPiLDa-gwmNhUrSdP-11" target="C-xJPiLDa-gwmNhUrSdP-53">
          <mxGeometry width="50" height="50" relative="1" as="geometry">
            <mxPoint x="882" y="370" as="sourcePoint" />
            <mxPoint x="932" y="320" as="targetPoint" />
          </mxGeometry>
        </mxCell>
        <mxCell id="C-xJPiLDa-gwmNhUrSdP-59" value="" style="endArrow=classic;startArrow=classic;html=1;rounded=0;entryX=0;entryY=0.5;entryDx=0;entryDy=0;entryPerimeter=0;exitX=1;exitY=0.5;exitDx=0;exitDy=0;" edge="1" parent="1" source="C-xJPiLDa-gwmNhUrSdP-15" target="C-xJPiLDa-gwmNhUrSdP-53">
          <mxGeometry width="50" height="50" relative="1" as="geometry">
            <mxPoint x="972" y="483" as="sourcePoint" />
            <mxPoint x="1022" y="433" as="targetPoint" />
          </mxGeometry>
        </mxCell>
        <mxCell id="C-xJPiLDa-gwmNhUrSdP-62" value="" style="endArrow=classic;startArrow=classic;html=1;rounded=0;exitX=1;exitY=0.5;exitDx=0;exitDy=0;entryX=0;entryY=0.5;entryDx=0;entryDy=0;entryPerimeter=0;" edge="1" parent="1" source="C-xJPiLDa-gwmNhUrSdP-15" target="C-xJPiLDa-gwmNhUrSdP-53">
          <mxGeometry width="50" height="50" relative="1" as="geometry">
            <mxPoint x="1038" y="556" as="sourcePoint" />
            <mxPoint x="1202.371" y="640.4779999999996" as="targetPoint" />
          </mxGeometry>
        </mxCell>
        <mxCell id="C-xJPiLDa-gwmNhUrSdP-63" value="" style="endArrow=classic;startArrow=classic;html=1;rounded=0;exitX=1;exitY=0.5;exitDx=0;exitDy=0;entryX=0;entryY=0.5;entryDx=0;entryDy=0;entryPerimeter=0;" edge="1" parent="1" source="C-xJPiLDa-gwmNhUrSdP-14" target="C-xJPiLDa-gwmNhUrSdP-53">
          <mxGeometry width="50" height="50" relative="1" as="geometry">
            <mxPoint x="954" y="878" as="sourcePoint" />
            <mxPoint x="1195.723" y="636.0500000000002" as="targetPoint" />
          </mxGeometry>
        </mxCell>
        <mxCell id="C-xJPiLDa-gwmNhUrSdP-64" value="" style="endArrow=classic;startArrow=classic;html=1;rounded=0;entryX=0;entryY=0.5;entryDx=0;entryDy=0;exitX=1;exitY=0.5;exitDx=0;exitDy=0;exitPerimeter=0;" edge="1" parent="1" source="C-xJPiLDa-gwmNhUrSdP-53" target="C-xJPiLDa-gwmNhUrSdP-19">
          <mxGeometry width="50" height="50" relative="1" as="geometry">
            <mxPoint x="1473" y="654.4999999999995" as="sourcePoint" />
            <mxPoint x="1395" y="731" as="targetPoint" />
          </mxGeometry>
        </mxCell>
        <mxCell id="C-xJPiLDa-gwmNhUrSdP-65" value="" style="endArrow=classic;startArrow=classic;html=1;rounded=0;exitX=1;exitY=0.5;exitDx=0;exitDy=0;exitPerimeter=0;entryX=0.5;entryY=1;entryDx=0;entryDy=0;" edge="1" parent="1" source="C-xJPiLDa-gwmNhUrSdP-53" target="C-xJPiLDa-gwmNhUrSdP-20">
          <mxGeometry width="50" height="50" relative="1" as="geometry">
            <mxPoint x="1473" y="654.4999999999995" as="sourcePoint" />
            <mxPoint x="1680" y="938" as="targetPoint" />
          </mxGeometry>
        </mxCell>
        <mxCell id="C-xJPiLDa-gwmNhUrSdP-69" value="" style="endArrow=classic;startArrow=classic;html=1;rounded=0;exitX=1;exitY=0.5;exitDx=0;exitDy=0;entryX=0;entryY=0.5;entryDx=0;entryDy=0;entryPerimeter=0;" edge="1" parent="1" source="C-xJPiLDa-gwmNhUrSdP-18" target="C-xJPiLDa-gwmNhUrSdP-53">
          <mxGeometry width="50" height="50" relative="1" as="geometry">
            <mxPoint x="1880" y="651" as="sourcePoint" />
            <mxPoint x="1197.1080000000002" y="634.9429999999998" as="targetPoint" />
          </mxGeometry>
        </mxCell>
        <mxCell id="C-xJPiLDa-gwmNhUrSdP-71" value="" style="endArrow=classic;startArrow=classic;html=1;rounded=0;entryX=1;entryY=0.5;entryDx=0;entryDy=0;entryPerimeter=0;exitX=0;exitY=0.5;exitDx=0;exitDy=0;" edge="1" parent="1" source="C-xJPiLDa-gwmNhUrSdP-21" target="C-xJPiLDa-gwmNhUrSdP-53">
          <mxGeometry width="50" height="50" relative="1" as="geometry">
            <mxPoint x="1560" y="940" as="sourcePoint" />
            <mxPoint x="1610" y="890" as="targetPoint" />
          </mxGeometry>
        </mxCell>
        <mxCell id="C-xJPiLDa-gwmNhUrSdP-73" value="&lt;h1&gt;&lt;font style=&quot;font-size: 50px;&quot;&gt;MINIO&lt;/font&gt;&lt;/h1&gt;" style="shape=cylinder3;whiteSpace=wrap;html=1;boundedLbl=1;backgroundOutline=1;size=15;" vertex="1" parent="1">
          <mxGeometry x="1244" y="-49" width="172" height="192" as="geometry" />
        </mxCell>
        <mxCell id="C-xJPiLDa-gwmNhUrSdP-74" value="" style="endArrow=classic;html=1;rounded=0;entryX=0;entryY=0.5;entryDx=0;entryDy=0;entryPerimeter=0;exitX=1.006;exitY=0.368;exitDx=0;exitDy=0;exitPerimeter=0;" edge="1" parent="1" source="C-xJPiLDa-gwmNhUrSdP-15" target="C-xJPiLDa-gwmNhUrSdP-73">
          <mxGeometry width="50" height="50" relative="1" as="geometry">
            <mxPoint x="1152" y="115" as="sourcePoint" />
            <mxPoint x="1202" y="65" as="targetPoint" />
          </mxGeometry>
        </mxCell>
        <mxCell id="C-xJPiLDa-gwmNhUrSdP-75" value="&lt;h1&gt;&lt;font style=&quot;font-size: 38px;&quot;&gt;ELASTIC&lt;/font&gt;&lt;/h1&gt;" style="shape=cylinder3;whiteSpace=wrap;html=1;boundedLbl=1;backgroundOutline=1;size=15;" vertex="1" parent="1">
          <mxGeometry x="1249" y="1218" width="172" height="192" as="geometry" />
        </mxCell>
        <mxCell id="C-xJPiLDa-gwmNhUrSdP-77" value="" style="endArrow=classic;html=1;rounded=0;exitX=1;exitY=0.5;exitDx=0;exitDy=0;entryX=0;entryY=0.5;entryDx=0;entryDy=0;entryPerimeter=0;" edge="1" parent="1" source="C-xJPiLDa-gwmNhUrSdP-14" target="C-xJPiLDa-gwmNhUrSdP-75">
          <mxGeometry width="50" height="50" relative="1" as="geometry">
            <mxPoint x="1418" y="756" as="sourcePoint" />
            <mxPoint x="1468" y="706" as="targetPoint" />
          </mxGeometry>
        </mxCell>
        <mxCell id="C-xJPiLDa-gwmNhUrSdP-78" value="" style="rounded=0;whiteSpace=wrap;html=1;fillColor=none;" vertex="1" parent="1">
          <mxGeometry x="627" y="-91" width="1702" height="1523" as="geometry" />
        </mxCell>
        <mxCell id="C-xJPiLDa-gwmNhUrSdP-80" value="" style="endArrow=classic;html=1;rounded=0;entryX=0;entryY=0.5;entryDx=0;entryDy=0;entryPerimeter=0;exitX=1;exitY=0.46;exitDx=0;exitDy=0;exitPerimeter=0;" edge="1" parent="1" source="C-xJPiLDa-gwmNhUrSdP-78" target="C-xJPiLDa-gwmNhUrSdP-33">
          <mxGeometry width="50" height="50" relative="1" as="geometry">
            <mxPoint x="2472" y="422" as="sourcePoint" />
            <mxPoint x="2522" y="372" as="targetPoint" />
          </mxGeometry>
        </mxCell>
        <mxCell id="C-xJPiLDa-gwmNhUrSdP-81" value="&lt;h1&gt;&lt;font style=&quot;font-size: 50px;&quot;&gt;REDIS&lt;/font&gt;&lt;/h1&gt;" style="shape=cylinder3;whiteSpace=wrap;html=1;boundedLbl=1;backgroundOutline=1;size=15;" vertex="1" parent="1">
          <mxGeometry x="2630" y="652" width="176" height="224" as="geometry" />
        </mxCell>
        <mxCell id="C-xJPiLDa-gwmNhUrSdP-82" value="" style="endArrow=classic;html=1;rounded=0;entryX=0;entryY=0.5;entryDx=0;entryDy=0;entryPerimeter=0;exitX=1.002;exitY=0.478;exitDx=0;exitDy=0;exitPerimeter=0;" edge="1" parent="1" source="C-xJPiLDa-gwmNhUrSdP-78" target="C-xJPiLDa-gwmNhUrSdP-81">
          <mxGeometry width="50" height="50" relative="1" as="geometry">
            <mxPoint x="1072" y="788" as="sourcePoint" />
            <mxPoint x="1122" y="738" as="targetPoint" />
          </mxGeometry>
        </mxCell>
        <mxCell id="C-xJPiLDa-gwmNhUrSdP-83" value="" style="endArrow=classic;html=1;rounded=0;exitX=1;exitY=0.5;exitDx=0;exitDy=0;entryX=-0.001;entryY=0.481;entryDx=0;entryDy=0;entryPerimeter=0;strokeWidth=4;" edge="1" parent="1" source="C-xJPiLDa-gwmNhUrSdP-5" target="C-xJPiLDa-gwmNhUrSdP-78">
          <mxGeometry width="50" height="50" relative="1" as="geometry">
            <mxPoint x="435" y="645" as="sourcePoint" />
            <mxPoint x="760" y="632" as="targetPoint" />
          </mxGeometry>
        </mxCell>
        <mxCell id="C-xJPiLDa-gwmNhUrSdP-104" value="&lt;font style=&quot;font-size: 28px;&quot;&gt;&lt;b&gt;FILTERING&lt;/b&gt;&lt;/font&gt;" style="edgeLabel;html=1;align=center;verticalAlign=middle;resizable=0;points=[];" vertex="1" connectable="0" parent="C-xJPiLDa-gwmNhUrSdP-83">
          <mxGeometry x="-0.3475" y="14" relative="1" as="geometry">
            <mxPoint x="33" y="-17" as="offset" />
          </mxGeometry>
        </mxCell>
        <mxCell id="C-xJPiLDa-gwmNhUrSdP-105" value="&lt;font style=&quot;font-size: 28px;&quot;&gt;&lt;b&gt;ROUTING&lt;/b&gt;&lt;/font&gt;" style="edgeLabel;html=1;align=center;verticalAlign=middle;resizable=0;points=[];" vertex="1" connectable="0" parent="C-xJPiLDa-gwmNhUrSdP-83">
          <mxGeometry x="-0.3475" y="14" relative="1" as="geometry">
            <mxPoint x="40" y="126" as="offset" />
          </mxGeometry>
        </mxCell>
        <mxCell id="C-xJPiLDa-gwmNhUrSdP-89" value="" style="endArrow=classic;html=1;rounded=0;entryX=0.991;entryY=0.577;entryDx=0;entryDy=0;entryPerimeter=0;exitX=-0.003;exitY=0.533;exitDx=0;exitDy=0;exitPerimeter=0;strokeWidth=4;" edge="1" parent="1" source="C-xJPiLDa-gwmNhUrSdP-78" target="C-xJPiLDa-gwmNhUrSdP-5">
          <mxGeometry width="50" height="50" relative="1" as="geometry">
            <mxPoint x="544" y="813" as="sourcePoint" />
            <mxPoint x="594" y="763" as="targetPoint" />
          </mxGeometry>
        </mxCell>
        <mxCell id="C-xJPiLDa-gwmNhUrSdP-91" value="&lt;font style=&quot;font-size: 29px;&quot;&gt;&lt;b&gt;SPRING ACTUATOR&lt;/b&gt;&lt;/font&gt;" style="shape=ext;double=1;whiteSpace=wrap;html=1;aspect=fixed;" vertex="1" parent="1">
          <mxGeometry x="2192" y="1284" width="254" height="254" as="geometry" />
        </mxCell>
        <mxCell id="C-xJPiLDa-gwmNhUrSdP-94" value="&lt;font style=&quot;font-size: 31px;&quot;&gt;PROMETHEUS&lt;/font&gt;" style="whiteSpace=wrap;html=1;aspect=fixed;" vertex="1" parent="1">
          <mxGeometry x="2917" y="1068" width="263" height="263" as="geometry" />
        </mxCell>
        <mxCell id="C-xJPiLDa-gwmNhUrSdP-98" value="" style="endArrow=classic;html=1;rounded=0;entryX=0.011;entryY=0.199;entryDx=0;entryDy=0;entryPerimeter=0;exitX=0.982;exitY=0.453;exitDx=0;exitDy=0;exitPerimeter=0;" edge="1" parent="1" source="C-xJPiLDa-gwmNhUrSdP-91" target="C-xJPiLDa-gwmNhUrSdP-94">
          <mxGeometry width="50" height="50" relative="1" as="geometry">
            <mxPoint x="2455" y="1372" as="sourcePoint" />
            <mxPoint x="2774" y="1126.749999999999" as="targetPoint" />
          </mxGeometry>
        </mxCell>
        <mxCell id="C-xJPiLDa-gwmNhUrSdP-103" value="&lt;font style=&quot;font-size: 26px;&quot;&gt;METRICS&lt;/font&gt;" style="edgeLabel;html=1;align=center;verticalAlign=middle;resizable=0;points=[];" vertex="1" connectable="0" parent="C-xJPiLDa-gwmNhUrSdP-98">
          <mxGeometry x="-0.0557" y="9" relative="1" as="geometry">
            <mxPoint x="1" as="offset" />
          </mxGeometry>
        </mxCell>
        <mxCell id="C-xJPiLDa-gwmNhUrSdP-99" value="" style="endArrow=classic;html=1;rounded=0;entryX=1;entryY=0.75;entryDx=0;entryDy=0;exitX=0;exitY=0.5;exitDx=0;exitDy=0;" edge="1" parent="1" source="C-xJPiLDa-gwmNhUrSdP-94" target="C-xJPiLDa-gwmNhUrSdP-91">
          <mxGeometry width="50" height="50" relative="1" as="geometry">
            <mxPoint x="2771" y="1213" as="sourcePoint" />
            <mxPoint x="2462.745999999999" y="1455.6079999999993" as="targetPoint" />
          </mxGeometry>
        </mxCell>
      </root>
    </mxGraphModel>
  </diagram>
</mxfile>
